<svg width="86.000000" height="40.000000" viewBox="0 0 86 40" fill="none" xmlns="http://www.w3.org/2000/svg" xmlns:xlink="http://www.w3.org/1999/xlink">
	<desc>
			Created with Pixso.
	</desc>
	<defs>
		<clipPath id="clip10_19">
			<rect id="Instagram_Glyph_Black 1" width="21.250000" height="21.250000" transform="translate(9.375000 9.375000)" fill="white" fill-opacity="0"/>
		</clipPath>
		<clipPath id="clip10_24">
			<rect id="Twitter Original *" width="22.500000" height="22.500000" transform="translate(54.750000 8.750000)" fill="white" fill-opacity="0"/>
		</clipPath>
		<clipPath id="clip10_25">
			<rect id="Twitter Castom *" width="40.000000" height="40.000000" transform="translate(46.000000 0.000000)" fill="white" fill-opacity="0"/>
		</clipPath>
	</defs>
	<rect id="Rectangle 1" rx="18.000000" width="40.000000" height="40.000000" fill="#202020" fill-opacity="1.000000"/>
	<rect id="Instagram_Glyph_Black 1" width="21.250000" height="21.250000" transform="translate(9.375000 9.375000)" fill="#FFFFFF" fill-opacity="0"/>
	<g clip-path="url(#clip10_19)">
		<path id="Vector" d="M15.5996 9.44952C14.4692 9.50287 13.6973 9.68329 13.022 9.94849C12.3237 10.2207 11.7314 10.586 11.1426 11.1772C10.5537 11.7684 10.1909 12.3608 9.92041 13.0604C9.65869 13.7368 9.48193 14.5094 9.43164 15.6405C9.38184 16.7717 9.37061 17.1353 9.37646 20.0206C9.38184 22.9059 9.39453 23.2676 9.44922 24.4011C9.50342 25.5314 9.68311 26.3032 9.94824 26.9783C10.2212 27.6768 10.5859 28.2686 11.1772 28.8578C11.7686 29.4471 12.3608 29.809 13.062 30.0797C13.7378 30.3409 14.5107 30.5189 15.6416 30.5684C16.7725 30.618 17.1362 30.6295 20.021 30.6239C22.9053 30.6184 23.2686 30.6057 24.4019 30.5519C25.5352 30.4981 26.3027 30.3171 26.978 30.0531C27.6768 29.7798 28.269 29.4156 28.8574 28.824C29.4463 28.2324 29.8091 27.6395 30.0791 26.9396C30.3408 26.2639 30.5186 25.491 30.5679 24.3609C30.6172 23.2268 30.6289 22.8647 30.6235 19.9798C30.6182 17.0948 30.605 16.7332 30.5513 15.6002C30.4976 14.4671 30.3174 13.6976 30.0527 13.0221C29.7793 12.3236 29.415 11.7322 28.8237 11.1425C28.2329 10.5529 27.6392 10.1906 26.9395 9.92108C26.2637 9.65948 25.4912 9.4812 24.3599 9.43231C23.229 9.38348 22.8652 9.37091 19.9795 9.37646C17.0942 9.38196 16.7329 9.39429 15.5996 9.44952ZM15.7236 28.657C14.6875 28.6119 14.125 28.4398 13.7505 28.2958C13.2539 28.1045 12.9004 27.8733 12.5269 27.5034C12.1533 27.1334 11.9238 26.7785 11.73 26.2831C11.5845 25.9083 11.4092 25.3465 11.3608 24.3105C11.3081 23.1909 11.2969 22.8547 11.2905 20.018C11.2847 17.1813 11.2954 16.8456 11.3442 15.7255C11.3887 14.6904 11.562 14.1273 11.7056 13.7527C11.897 13.2556 12.1274 12.9026 12.498 12.5293C12.8691 12.1559 13.2227 11.926 13.7188 11.7322C14.0928 11.586 14.6548 11.4122 15.6904 11.3629C16.811 11.3098 17.1465 11.2991 19.9829 11.293C22.8188 11.2868 23.1558 11.2974 24.2764 11.3467C25.3115 11.3918 25.875 11.5633 26.249 11.708C26.7456 11.8992 27.0991 12.129 27.4727 12.5004C27.8457 12.8719 28.0762 13.2244 28.27 13.7213C28.4165 14.0946 28.5903 14.6562 28.6392 15.6924C28.6924 16.8129 28.7046 17.1489 28.7095 19.9849C28.7148 22.8209 28.7046 23.1577 28.6558 24.2774C28.6104 25.3133 28.4385 25.876 28.2944 26.2513C28.103 26.7475 27.8726 27.1013 27.5015 27.4744C27.1304 27.8476 26.7769 28.0775 26.2812 28.2713C25.9072 28.4173 25.3447 28.5916 24.3101 28.6409C23.1895 28.6935 22.8535 28.7046 20.0166 28.7108C17.1792 28.7169 16.8442 28.7054 15.7241 28.657L15.7236 28.657ZM24.3853 14.3215C24.3857 14.5737 24.4609 14.8201 24.6016 15.0296C24.7417 15.239 24.9414 15.4021 25.1743 15.4982C25.4077 15.5943 25.6641 15.6191 25.9111 15.5695C26.1587 15.5198 26.3857 15.3979 26.5635 15.2193C26.7417 15.0406 26.8628 14.8132 26.9111 14.5658C26.96 14.3184 26.9346 14.0621 26.8374 13.8292C26.7402 13.5964 26.5767 13.3976 26.3667 13.2579C26.1567 13.1182 25.9102 13.0439 25.6577 13.0444C25.3198 13.0451 24.9956 13.18 24.7573 13.4195C24.5186 13.659 24.3848 13.9835 24.3853 14.3215ZM14.5444 20.0108C14.5503 23.024 16.9976 25.4612 20.0103 25.4555C23.0229 25.4498 25.4619 23.0028 25.4561 19.9896C25.4502 16.9763 23.0024 14.5385 19.9893 14.5444C16.9766 14.5504 14.5386 16.998 14.5444 20.0108ZM16.4585 20.007C16.457 19.3065 16.6631 18.6213 17.0513 18.0381C17.4395 17.4549 17.9917 16.9999 18.6382 16.7305C19.2847 16.4612 19.9966 16.3896 20.6841 16.5249C21.3716 16.6602 22.0029 16.9963 22.4995 17.4907C22.9956 17.985 23.3345 18.6154 23.4722 19.3021C23.6104 19.9889 23.5415 20.7012 23.2749 21.3489C23.0078 21.9965 22.5552 22.5506 21.9736 22.9409C21.3921 23.3312 20.7075 23.5403 20.0068 23.5417C19.542 23.5427 19.0811 23.452 18.6509 23.2749C18.2212 23.0978 17.8301 22.8377 17.5005 22.5095C17.1709 22.1812 16.9092 21.7913 16.7305 21.3619C16.5518 20.9325 16.459 20.4721 16.4585 20.007Z" fill="#FFFFFF" fill-opacity="1.000000" fill-rule="nonzero"/>
	</g>
	<rect id="Twitter Castom *" width="40.000000" height="40.000000" transform="translate(46.000000 0.000000)" fill="#FFFFFF" fill-opacity="0"/>
	<g clip-path="url(#clip10_25)">
		<rect id="Rectangle 1" x="46.000000" rx="18.000000" width="40.000000" height="40.000000" fill="#202020" fill-opacity="1.000000"/>
		<rect id="Twitter Original *" width="22.500000" height="22.500000" transform="translate(54.750000 8.750000)" fill="#FFFFFF" fill-opacity="0"/>
		<g clip-path="url(#clip10_24)">
			<path id="white_background" d="M74.8867 15.3993C74.9004 15.5962 74.9004 15.7931 74.9004 15.9918C74.9004 22.0459 70.2915 29.0281 61.8638 29.0281L61.8638 29.0245C59.3745 29.0281 56.9365 28.3151 54.8408 26.9705C55.2026 27.014 55.5664 27.0358 55.9312 27.0367C57.9946 27.0385 59.9985 26.3463 61.6216 25.0716C59.6611 25.0344 57.9419 23.756 57.3413 21.8898C58.0278 22.0223 58.7358 21.9951 59.4097 21.8109C57.2725 21.379 55.7344 19.501 55.7344 17.32C55.7344 17.3 55.7344 17.2809 55.7344 17.2619C56.3716 17.6166 57.0845 17.8135 57.814 17.8353C55.8008 16.4898 55.1802 13.8116 56.396 11.7177C58.7222 14.5801 62.1543 16.3202 65.8384 16.5043C65.4692 14.913 65.9736 13.2455 67.1641 12.1268C69.0093 10.3922 71.9116 10.4811 73.6465 12.3255C74.6724 12.1232 75.6562 11.7467 76.5562 11.2132C76.2139 12.2738 75.498 13.1747 74.542 13.7472C75.4502 13.6401 76.3374 13.397 77.1729 13.0259C76.5576 13.9477 75.7832 14.7506 74.8867 15.3993Z" fill="#FFFFFF" fill-opacity="1.000000" fill-rule="nonzero"/>
		</g>
	</g>
</svg>
