<svg width="58.000000" height="68.704468" viewBox="0 0 58 68.7045" fill="none" xmlns="http://www.w3.org/2000/svg" xmlns:xlink="http://www.w3.org/1999/xlink">
	<desc>
			Created with Pixso.
	</desc>
	<defs/>
	<path d="M42.0303 25.005C43.9624 26.9304 48.0859 28.098 49.6592 28.3898C48.1138 30.04 45.5815 29.6495 44.4604 29.4768C43.9097 29.3918 43.7002 29.3594 44.1157 29.6478C44.9805 30.2474 45.9741 30.1827 46.9731 30.1176C47.4321 30.0876 47.8926 30.0577 48.3418 30.0922C49.769 30.2015 50.8667 31.2341 50.4277 31.6718C50.2461 31.8528 49.3794 31.8549 48.3247 31.8574C46.8286 31.8611 44.9531 31.8656 44.1157 32.3829C43.7256 32.624 43.147 33.0155 42.4756 33.4695C40.6919 34.6754 38.2573 36.3218 36.9814 36.7589L36.9297 36.7766C35.1865 37.3737 33.2456 38.0385 32.8647 40.2051C32.647 41.4473 32.8711 42.2509 33.0752 42.9838C33.231 43.5417 33.375 44.0588 33.3042 44.6973C33.1396 46.1742 29.6816 46.7692 29.5718 46.6051C29.5254 46.5353 29.6675 46.4171 29.8335 46.2791C30.0576 46.0928 30.3252 45.8704 30.2305 45.6819C30.144 45.5092 29.4951 45.5145 28.8916 45.5195C28.3481 45.5239 27.8418 45.5281 27.8159 45.4017C27.7871 45.2623 28.1772 45.0597 28.5493 44.8667C28.8892 44.6902 29.2139 44.5216 29.188 44.4171C29.166 44.3307 28.9517 44.2745 28.7466 44.2211C28.5366 44.1661 28.3369 44.1139 28.3647 44.0342C28.3901 43.9607 28.9795 43.9216 29.6274 43.8784C30.3691 43.8291 31.1875 43.7747 31.3281 43.658C31.6577 43.3844 32.0967 42.0717 30.6147 39.9382C29.4292 38.2316 26.8276 37.8049 25.6753 37.8049L27.5962 38.6188C27.5718 38.9276 27.5273 39.3481 27.479 39.8074C27.3813 40.7311 27.2671 41.8115 27.2671 42.4546C27.2671 43.0238 27.3896 43.1523 27.4844 43.2515C27.5898 43.3618 27.6602 43.4355 27.4863 44.0409C27.1572 45.1896 22.7666 45.7913 22.7114 45.1349C22.6841 44.8049 23.0586 44.6962 23.3892 44.6001C23.7163 44.505 24.0005 44.4224 23.8091 44.1503C23.6025 43.8562 23.1108 43.8922 22.7256 43.9203C22.394 43.9446 22.1416 43.963 22.2178 43.7606C22.3198 43.4895 22.9482 43.4099 23.4248 43.3496C23.7178 43.3126 23.9531 43.2827 23.9741 43.2203C24.0083 43.1178 23.8496 43.0768 23.6323 43.0204C23.502 42.9865 23.3496 42.947 23.2056 42.8855C22.8984 42.7542 23.2056 42.6254 23.48 42.6733C23.7544 42.7213 25.7852 42.6552 25.8398 42.3451C26.1035 39.1506 25.0166 38.2358 24.0288 37.5795C23.7871 37.4188 23.4136 37.2697 22.9297 37.0763C21.436 36.4799 18.8901 35.463 15.9062 32.3895C11.9873 28.3538 13.4917 25.14 15.3496 21.171C15.834 20.137 16.3418 19.0516 16.7842 17.8872C18.4966 13.3799 17.6621 10.9219 17.1133 9.73669C15.2266 9.78381 14.2573 8.80713 13.6855 8.23071C13.5923 8.13647 13.5093 8.05298 13.4346 7.98633C10.6685 7.98633 9.53809 7.54871 9.48486 6.94702C9.43164 6.34534 11.9546 5.9624 11.9546 5.9624C11.9546 5.9624 12.731 5.6875 13.0503 5.57947C13.0503 5.17688 13.4087 4.95142 13.6763 4.78284C13.7871 4.71338 13.8823 4.65344 13.9302 4.59485C13.0522 4.3761 12.9971 3.61023 13.2168 3.44617C13.3926 3.31482 14.1499 3.61694 14.479 3.83569C14.8306 2.7417 14.5522 1.19189 14.3696 0.553711C16.6963 -0.627808 18.3027 0.353149 18.8149 0.991333C17.7183 3.80212 18.1123 3.98767 18.437 4.1405C18.4531 4.14832 18.4697 4.15601 18.4858 4.16394C18.6162 4.22888 18.8413 4.19849 19.062 4.16858C19.3989 4.12305 19.7261 4.07874 19.6929 4.3761C19.6582 4.68616 18.4307 4.97778 18.4307 4.97778C18.4307 4.97778 19.7119 5.59937 21.0649 8.69739C22.5835 12.1743 22.1455 16.0125 21.8521 18.5834C21.6748 20.1381 21.5503 21.2295 21.9434 21.4974C22.9165 22.161 24.7974 21.3698 25.9365 20.8905C26.0181 20.8562 26.0957 20.8235 26.1694 20.793C32.3711 19.5349 39.6157 22.5981 42.0303 25.005ZM21.3394 13.2924C21.208 8.65369 19.3091 6.21765 18.376 5.57947L18.1016 6.83765C18.6284 7.4502 19.3818 8.91626 19.6929 9.57263L20.1323 9.57263C20.7031 10.5791 21.1748 12.4718 21.3394 13.2924ZM24.3032 22.6461C24.9253 22.245 26.9927 21.1692 30.5049 21.3881C34.0176 21.6068 37.4204 22.9197 40.1646 24.8889L34.5117 23.7949L33.4136 24.3419C31.8955 23.4849 28.0791 22.121 24.3032 22.6461ZM18.2114 1.09399C18.0356 1.26904 17.4429 2.57092 17.3882 3.8291L16.7295 3.7196L16.9487 0.656372C17.6626 0.71106 18.083 0.984619 18.2114 1.09399ZM20.6035 22.069C20.3164 22.203 19.8745 22.4091 19.1992 22.865C19.7295 21.5339 21.3945 15.535 21.3945 15.535C21.3945 15.535 21.1201 20.5128 21.1201 21.3334C21.1201 21.8281 21.04 21.8654 20.6035 22.069ZM12.3369 6.32129C12.3369 6.18726 12.9409 6.02307 12.9409 6.21179C12.9409 6.40051 12.3369 6.4552 12.3369 6.32129ZM14.6035 6.1709C14.3838 5.84277 14.7129 5.29578 15.0425 5.18628C15.3716 5.0769 15.9976 5.13159 16.085 5.78809C16.1948 6.60852 14.8228 6.49915 14.6035 6.1709Z" fill="#FFFFFF" fill-opacity="1.000000" fill-rule="evenodd"/>
	<path d="M5.09766 53.191L9.11475 53.191Q9.5498 53.191 9.81592 53.403Q10.2344 53.7367 10.2344 54.5957L10.2344 56.7094L11.6704 56.8143L11.6704 58.311L8.39062 58.311L9.43115 54.6089L8.9834 54.6089Q8.7876 55.9929 8.03809 56.9366Q7.82764 57.2013 7.57373 57.4314Q7.25537 57.7234 6.89014 57.9342Q5.94092 58.4817 4.67627 58.4817Q3.48291 58.4817 2.52197 58.0093L2.52197 58.0093Q1.88135 57.6941 1.34375 57.1688Q0.854004 56.6857 0.542969 56.1067L0.542969 56.1067Q0 55.0967 0 53.7949Q0 52.4427 0.569824 51.4026L0.569824 51.4026Q0.912598 50.7765 1.46191 50.2634Q1.80371 49.9474 2.19092 49.7046L2.19092 49.7046Q3.47705 48.8981 5.26855 48.8981Q6.03174 48.8981 6.74658 49.084L6.74707 49.084L6.74707 49.084Q7.01904 49.1548 7.28418 49.2526C7.93408 49.4889 8.49609 49.8783 8.97021 50.4209C9.44434 50.9636 9.70312 51.6068 9.74707 52.3508L8.02148 52.3114Q7.98828 52.0129 7.86426 51.7589L7.86426 51.7589Q7.64404 51.309 7.13916 50.9985Q6.36182 50.4998 5.21631 50.4998Q3.80713 50.4998 2.99561 51.1959L2.99561 51.1959L2.99561 51.1959L2.99561 51.1959Q2.88135 51.2939 2.7793 51.4055Q2.66699 51.5281 2.57031 51.6619L2.57031 51.662L2.57031 51.662Q1.9624 52.5021 1.9624 53.7817Q1.9624 54.7614 2.40918 55.4526Q2.60889 55.762 2.89795 56.0135Q3.25098 56.3209 3.65869 56.5122L3.65869 56.5122Q4.33057 56.8275 5.15039 56.8275C5.89648 56.8275 6.58594 56.635 7.21826 56.2499C7.85059 55.8647 8.21924 55.3177 8.32471 54.6089L5.09766 54.6089L5.09766 53.191ZM21.8501 49.7197Q22.2695 49.9664 22.6436 50.2897C23.7061 51.1998 24.2417 52.3464 24.2505 53.7292C24.2505 55.1034 23.7192 56.2455 22.6567 57.1558Q22.2988 57.4646 21.8994 57.7036L21.8989 57.7042Q20.5332 58.521 18.6787 58.521Q16.8735 58.521 15.522 57.7384L15.5215 57.7384L15.521 57.738L15.521 57.738Q15.0879 57.4871 14.7007 57.1558Q13.8804 56.4469 13.4858 55.5505L13.4858 55.5505Q13.1201 54.7203 13.1201 53.7292C13.1201 52.3815 13.6558 51.2437 14.7271 50.3159Q15.2471 49.8691 15.8408 49.5659L15.8408 49.5658L15.8408 49.5658Q17.0957 48.9243 18.6787 48.9243Q20.4985 48.9243 21.8501 49.7197L21.8501 49.7197ZM35.1982 50.2897C34.144 49.3794 32.8228 48.9243 31.2334 48.9243Q29.6504 48.9243 28.3955 49.5658Q27.8018 49.8691 27.2817 50.3159C26.2104 51.2437 25.6748 52.3815 25.6748 53.7292Q25.6748 54.7202 26.04 55.5504L26.04 55.5505Q26.4346 56.4469 27.2554 57.1558Q27.6426 57.4873 28.0762 57.7384Q29.4282 58.521 31.2334 58.521C32.8315 58.521 34.1572 58.0659 35.2114 57.1558C36.2739 56.2455 36.8052 55.1034 36.8052 53.7292C36.7964 52.3464 36.2607 51.1998 35.1982 50.2897ZM40.4814 51.8914C40.4814 52.1976 40.6265 52.4426 40.9165 52.6265C41.2061 52.8015 41.5791 52.9197 42.0361 52.981C42.5015 53.0422 43.0151 53.0903 43.5771 53.1254C44.1392 53.1604 44.7012 53.2173 45.2632 53.296C45.8252 53.3661 46.3345 53.4755 46.791 53.6243C47.2563 53.7643 47.6338 54.0049 47.9238 54.3463C48.2134 54.6876 48.3584 55.1165 48.3584 55.6328Q48.3584 56.1428 48.1655 56.5647Q47.832 57.2939 46.9229 57.7596Q45.4868 58.4948 43.2476 58.4948Q41.9966 58.4948 41.0479 58.2848C40.4243 58.136 39.937 57.9565 39.5859 57.7465C39.2349 57.5277 38.9492 57.2695 38.73 56.9719C38.5103 56.6743 38.3652 56.3987 38.2949 56.1449C38.2334 55.8823 38.2026 55.6066 38.2026 55.3177L40.3501 55.3177C40.3413 55.9216 40.5869 56.368 41.0874 56.6569C41.5967 56.9369 42.3125 57.0769 43.2344 57.0769C45.2632 57.0769 46.2773 56.6044 46.2773 55.6591Q46.2773 55.4175 46.1777 55.2285Q46.0659 55.017 45.8296 54.8715C45.5396 54.6788 45.1621 54.5563 44.6968 54.5038C44.2314 54.4425 43.7129 54.3988 43.1426 54.3726C42.5806 54.3463 42.0186 54.3025 41.4565 54.2412C40.8945 54.1713 40.3809 54.0619 39.915 53.9131C39.4497 53.7643 39.0679 53.5148 38.769 53.1648C38.4795 52.8059 38.3345 52.3464 38.3345 51.7863C38.3345 50.9023 38.7734 50.2152 39.6519 49.7251Q40.9688 48.99 43.4189 48.99Q45.6582 48.99 46.9492 49.7908Q47.4634 50.1013 47.7705 50.5527Q48.2427 51.2462 48.2266 52.272L46.2114 52.272C46.2114 51.0029 45.2808 50.3684 43.4189 50.3684C41.4609 50.3684 40.4814 50.8761 40.4814 51.8914ZM52.0859 50.6047L58 50.6047L58 49.1212L50.2812 49.1212L50.2812 58.311L58 58.311L58 56.8275L52.0859 56.8275L52.0859 54.4119L57.5786 54.4119L57.5786 53.2173L52.0859 53.2173L52.0859 50.6047ZM18.6787 57.1294C19.6973 57.1294 20.5449 56.8275 21.2207 56.2236Q21.564 55.9214 21.792 55.5488L21.7925 55.5488Q22.2485 54.8052 22.2485 53.7817C22.2485 52.7228 21.9321 51.8956 21.2998 51.3005Q21.1689 51.1771 21.0254 51.0702Q20.1313 50.4042 18.7578 50.3816C17.7217 50.364 16.8608 50.666 16.1763 51.2874Q15.8623 51.5759 15.6455 51.9248L15.6455 51.9248Q15.1616 52.7031 15.1616 53.7817Q15.1616 54.9084 15.6826 55.6869L15.6826 55.687Q15.8838 55.9879 16.1631 56.2367Q16.4297 56.4746 16.7329 56.6492Q17.5674 57.1294 18.6787 57.1294ZM33.7754 56.2236C33.0991 56.8275 32.252 57.1294 31.2334 57.1294C30.2236 57.1294 29.3848 56.8319 28.7173 56.2367C28.0498 55.6416 27.7163 54.8232 27.7163 53.7817Q27.7163 52.7031 28.1997 51.9248Q28.4165 51.5759 28.7305 51.2874Q29.0327 51.0132 29.3809 50.8218L29.3809 50.8218L29.3809 50.8218Q30.2153 50.363 31.3125 50.3816C32.375 50.399 33.2222 50.7054 33.8545 51.3005C34.4868 51.8956 34.8027 52.7228 34.8027 53.7817C34.8027 54.8058 34.4604 55.6198 33.7754 56.2236Z" fill="#FFFFFF" fill-opacity="1.000000" fill-rule="evenodd"/>
	<path d="M22.3794 61.1995L23.7183 61.1995Q23.8633 61.1995 23.9521 61.27Q24.0918 61.3813 24.0918 61.6676L24.0918 62.3722L24.5703 62.4072L24.5703 62.9061L23.4771 62.9061L23.8237 61.672L23.6748 61.672Q23.6094 62.1334 23.3594 62.448Q23.2896 62.5361 23.2046 62.6129Q23.0986 62.7102 22.9771 62.7804L22.9771 62.7805Q22.6606 62.963 22.2388 62.963Q21.8413 62.963 21.521 62.8055Q21.3071 62.7004 21.1279 62.5254Q20.9648 62.3643 20.8613 62.1713L20.8613 62.1713Q20.6802 61.8346 20.6802 61.4008Q20.6802 60.95 20.8701 60.6033L20.8701 60.6033L20.8701 60.6033Q20.9844 60.3945 21.1675 60.2235Q21.2812 60.1182 21.4106 60.0372L21.4106 60.0372Q21.8394 59.7684 22.4365 59.7684Q22.6909 59.7684 22.9292 59.8304L22.9292 59.8304L22.9292 59.8304Q23.02 59.854 23.1084 59.8866Q23.2168 59.9261 23.3159 59.9829L23.3159 59.9829L23.3159 59.9829Q23.5127 60.0956 23.6704 60.276Q23.77 60.39 23.8315 60.5217L23.8315 60.5217Q23.9165 60.7036 23.9292 60.9193L23.354 60.9062C23.3335 60.7224 23.2354 60.5765 23.0601 60.4686Q22.8008 60.3024 22.4189 60.3024Q21.9492 60.3024 21.6787 60.5344Q21.6406 60.567 21.6064 60.6042Q21.5693 60.6451 21.5371 60.6897L21.5371 60.6897Q21.3345 60.9697 21.3345 61.3964Q21.3345 61.7229 21.4834 61.9532L21.4834 61.9534Q21.5498 62.0564 21.646 62.1403Q21.7637 62.2427 21.8999 62.3065L21.8999 62.3065Q22.1235 62.4116 22.397 62.4116Q22.5942 62.4116 22.7754 62.3579Q22.937 62.3099 23.0864 62.219C23.2969 62.0907 23.4199 61.9083 23.4551 61.672L22.3794 61.672L22.3794 61.1995ZM27.8057 60.6063L27.8057 60.6063Q27.8496 60.6379 27.8901 60.6743C28.0977 60.861 28.1929 61.1674 28.1753 61.5933L27.5605 61.5977Q27.5605 61.2388 27.4243 61.0725Q27.4238 61.0715 27.4229 61.0704Q27.2861 60.9019 26.9414 60.9019Q26.6992 60.9019 26.4893 60.9843L26.4893 60.9843L26.4888 60.9844Q26.4668 60.993 26.4453 61.0024C26.2959 61.0667 26.1777 61.1469 26.0898 61.2432C26.0049 61.3395 25.9375 61.4386 25.8877 61.5408Q25.8174 61.6896 25.8174 61.812L25.8174 62.9104L25.1592 62.9104L25.1592 60.4424L25.8174 60.4424L25.8174 60.8406L25.7212 61.1075L25.8701 61.1075Q26.0649 60.748 26.3667 60.5697L26.3667 60.5697L26.3667 60.5697Q26.6636 60.3942 27.0645 60.3942Q27.5117 60.3942 27.8057 60.6063ZM30.5835 60.4773C30.4048 60.4219 30.2207 60.3942 30.0303 60.3942C29.7637 60.3942 29.5093 60.4424 29.2661 60.5386C29.0264 60.632 28.8228 60.7808 28.6558 60.985Q28.5513 61.1136 28.4912 61.2605Q28.4102 61.4584 28.4102 61.6896Q28.4102 61.9648 28.5166 62.1893L28.5166 62.1895Q28.6338 62.436 28.8799 62.6216Q29.0005 62.7119 29.1333 62.7793Q29.521 62.9761 30.0083 62.9761Q30.5122 62.9761 30.9023 62.7655L30.9023 62.7655L30.9028 62.7655Q31.0156 62.7046 31.1191 62.626Q31.3423 62.4567 31.457 62.2321Q31.5801 61.9923 31.5801 61.6896Q31.5801 61.4165 31.478 61.1896Q31.4624 61.1545 31.4438 61.1206C31.353 60.9485 31.2319 60.8114 31.0796 60.7092C30.9302 60.6072 30.7651 60.5299 30.5835 60.4773ZM36.9507 62.7267C37.1851 62.8755 37.4526 62.9498 37.7539 62.9498C38.123 62.9498 38.4375 62.839 38.6982 62.6173Q38.8037 62.526 38.8809 62.4149Q39.0889 62.1156 39.0889 61.672Q39.0889 61.2213 38.876 60.9218Q38.8037 60.8199 38.707 60.7356C38.4521 60.5138 38.1406 60.403 37.7715 60.403C37.4995 60.403 37.2373 60.4628 36.9858 60.5824C36.7368 60.702 36.5586 60.8479 36.4502 61.02L36.3008 61.02L36.4985 60.7268L36.4985 60.4424L35.8398 60.4424L35.8398 64.0001L36.4985 64.0001L36.4985 62.5909L36.292 62.149L36.4282 62.149C36.5454 62.3824 36.7192 62.575 36.9507 62.7267ZM33.2593 62.9542C33.1421 62.9542 33.0308 62.944 32.9258 62.9236C32.8232 62.9032 32.7192 62.8667 32.6138 62.8142C32.5112 62.7588 32.4238 62.6902 32.3506 62.6085C32.2773 62.5239 32.2173 62.4146 32.1704 62.2803Q32.1001 62.0746 32.1001 61.8164L32.1001 60.438L32.75 60.438L32.75 61.7114Q32.75 61.8514 32.7676 61.9608C32.7822 62.0338 32.8086 62.114 32.8467 62.2015C32.8877 62.2861 32.9565 62.3533 33.0527 62.4028C33.1494 62.4524 33.2695 62.4772 33.4131 62.4772C33.5771 62.4772 33.729 62.4451 33.8696 62.381C34.0132 62.3138 34.1274 62.2322 34.2119 62.1359C34.2998 62.0396 34.3687 61.9419 34.4185 61.8427Q34.4932 61.6896 34.4932 61.567L34.4932 60.438L35.1519 60.438L35.1519 62.9061L34.4932 62.9061L34.4932 62.5078L34.5854 62.241L34.4404 62.241C34.2031 62.7164 33.8096 62.9542 33.2593 62.9542ZM29.3276 62.3547C29.1519 62.1738 29.0645 61.9492 29.0645 61.6808C29.0645 61.4445 29.1475 61.2344 29.3145 61.0507C29.4844 60.8639 29.7168 60.7705 30.0127 60.7705C30.2935 60.7705 30.5146 60.858 30.6758 61.0331Q30.7598 61.1213 30.8149 61.225L30.8149 61.225Q30.9214 61.4244 30.9214 61.6808Q30.9214 61.9435 30.8135 62.1498L30.8135 62.1499Q30.7544 62.2629 30.6626 62.359C30.4897 62.537 30.2686 62.626 29.9995 62.626C29.7271 62.626 29.5034 62.5355 29.3276 62.3547ZM36.7793 61.0112C36.9639 60.8595 37.2109 60.7837 37.5215 60.7837C37.8228 60.7837 38.0498 60.858 38.2021 61.0068C38.354 61.1527 38.4302 61.3613 38.4302 61.6327C38.4302 61.901 38.3555 62.1125 38.2065 62.2672C38.0601 62.4218 37.8374 62.4991 37.5391 62.4991C37.2168 62.4991 36.9639 62.4131 36.7793 62.241C36.5952 62.0659 36.5029 61.8544 36.5029 61.6063Q36.5029 61.3977 36.5898 61.2358Q36.6582 61.1093 36.7793 61.0112Z" fill="#FFFFFF" fill-opacity="1.000000" fill-rule="evenodd"/>
	<path d="M44.2329 40.3065L43.6953 41.2593L42.7393 41.7952L43.6953 42.3311L44.2329 43.2837L44.7705 42.3311L45.7266 41.7952L44.7705 41.2593L44.2329 40.3065Z" fill="#FFFFFF" fill-opacity="1.000000" fill-rule="evenodd"/>
	<path d="M13.6724 40.3065L13.1348 41.2593L12.1787 41.7952L13.1348 42.3311L13.6724 43.2837L14.21 42.3311L15.166 41.7952L14.21 41.2593L13.6724 40.3065Z" fill="#FFFFFF" fill-opacity="1.000000" fill-rule="evenodd"/>
</svg>
